# xmcd
#
# Track frame offsets:
#	150
#	11725
#	23662
#	37850
#	50300
#	62465
#	73162
#	88765
#	102175
#	120330
#	134367
#	146950
#	158440
#	166150
#
# Disc length: 2391 seconds
#
# Revision: 1
# Processed by: cddbd v1.4PL0 Copyright (c) Steve Scherf et al.
# Submitted via: audiograbber 1.82.00
#
DISCID=ad09550e
DTITLE=Johnny Cash - Country Classics
DYEAR=1900
DGENRE=
TTITLE0=I Walk The Line
TTITLE1=What Is Truth
TTITLE2=I Still Miss Some One
TTITLE3=Wreck Of the Old 97
TTITLE4=Understand Your Man
TTITLE5=Daddy Sang Bass
TTITLE6=The Night They Drove Old Dixie Down
TTITLE7=Tennessee Flat Top Box
TTITLE8=The Walls Of A Prison
TTITLE9=The Long Black Veil
TTITLE10=Remember The Alamo
TTITLE11=In Them Old Cotton Fields Back Home
TTITLE12=I Got Stripes
TTITLE13=If I Were A Carpenter
EXTD=
EXTT0=
EXTT1=
EXTT2=
EXTT3=
EXTT4=
EXTT5=
EXTT6=
EXTT7=
EXTT8=
EXTT9=
EXTT10=
EXTT11=
EXTT12=
EXTT13=
PLAYORDER=
